# xmcd
#
# Track frame offsets: 
#        150
#        5146
#        15436
#        23642
#        38150
#        47546
#        61242
#        69920
#        75941
#        89844
#        100342
#        111921
#        121146
#        134127
#        144089
#        156477
#        169959
#        182768
#        190557
#        201256
#        210376
#        228239
#        237244
#        249371
#        263976
#        274014
#        286870
#        303289
#        318252
#
# Disc length: 4545 seconds
#
# Revision: 0
# Processed by: cddbd v1.5.2PL0 Copyright (c) Steve Scherf et al.
# Submitted via: ExactAudioCopy v0.99pb5
#
DISCID=8811bf1d
DTITLE=SELECTED BY.KUO - Sweet Reggae Cafe
DYEAR=1900
DGENRE=Blues
TTITLE0=Wild World -- MAXI PRIEST
TTITLE1=Wild World -- MAXI PRIEST
TTITLE2=Stop,Look,Listen -- SANDRA CROSS
TTITLE3=Oh La La -- 54-56
TTITLE4=Ooo Baby Baby -- KOTCH
TTITLE5=Woman -- RUDDY THOMAS
TTITLE6=Mercy Mercy Me -- RUDDY THOMAS
TTITLE7=Woman Need Love -- ANTHONY WATSON
TTITLE8=September -- WAYNE WONDER
TTITLE9=Make It Last Forever -- BIG MOUNTAIN feat. DIANA KING
TTITLE10=Break Up To Make Up -- LUKIE D
TTITLE11=Honesty -- THRILLER U
TTITLE12=Nothing Gonna Change My Love 4 U -- NASH LAWSON
TTITLE13=My Place -- BRIAN and TONY GOLD
TTITLE14=Dilemma -- SAVANA
TTITLE15=You Give Me Something -- LEE FRANCIS
TTITLE16=In Haven -- DA'VILLE
TTITLE17=Isn't She Lovely -- WAYNE WONDER
TTITLE18=I Just Called To Say I Love You -- SHINEHEAD
TTITLE19=Say Yes -- C.A.A.MIX FACTORY
TTITLE20=Ellie My Love -- THRILLER U and RED DRAGON
TTITLE21=For The Love Of You -- SHINEHEAD
TTITLE22=I'd Rather Hurt Myself Than To Hurt You -- RUDDY THOMAS
TTITLE23=Love Come Down -- BARRY BIGGS
TTITLE24=Lonely Girl -- DENNIS PEDDY
TTITLE25=One Night -- WAYNE WONDER,BRIAN and TONY GOLD
TTITLE26=Truly -- DENNIS PEDDY
TTITLE27=You Are Everything -- CARROL THOMPSON
TTITLE28=Me &Mrs.Jones -- BRIAN and TONY GOLD
EXTD=
EXTT0=
EXTT1=
EXTT2=
EXTT3=
EXTT4=
EXTT5=
EXTT6=
EXTT7=
EXTT8=
EXTT9=
EXTT10=
EXTT11=
EXTT12=
EXTT13=
EXTT14=
EXTT15=
EXTT16=
EXTT17=
EXTT18=
EXTT19=
EXTT20=
EXTT21=
EXTT22=
EXTT23=
EXTT24=
EXTT25=
EXTT26=
EXTT27=
EXTT28=
PLAYORDER=
